<?xml version="1.0" standalone="no"?><!DOCTYPE svg PUBLIC "-//W3C//DTD SVG 1.1//EN" "http://www.w3.org/Graphics/SVG/1.1/DTD/svg11.dtd"><svg t="1776916629399" class="icon" viewBox="0 0 1024 1024" version="1.1" xmlns="http://www.w3.org/2000/svg" p-id="9387" xmlns:xlink="http://www.w3.org/1999/xlink" width="200" height="200"><path d="M159.744 944.128c5.632 18.944 30.208 32.256 42.496 44.032 23.552-5.632 33.792-6.656 43.008-10.752 115.712-49.152 229.376-100.352 320.512-190.464 39.936-39.424 84.992-73.216 125.952-111.616 7.68-7.168 7.68-23.552 11.264-35.328-13.824-2.048-27.648-5.12-41.472-5.12-5.632 0-11.264 7.168-16.896 11.264-140.288 100.352-270.848 218.112-450.56 251.392-14.848 2.56-37.888 34.816-34.304 46.592z" fill="#FF0000" p-id="9388"></path><path d="M920.576 702.976c-5.632-59.392-22.528-111.616-66.048-158.72-72.192-78.336-165.888-77.824-259.072-81.92-15.36-0.512-46.592 25.088-45.056 29.696 17.408 46.592-20.48 59.392-46.592 76.288-105.984 70.144-206.336 152.064-338.432 173.056-29.696 4.608-57.344 14.848-51.712 49.152 6.144 38.912 42.496 39.424 69.632 30.208 52.736-17.92 108.544-35.328 154.112-66.048 91.648-61.952 177.664-131.584 264.192-199.68 48.128-37.888 89.088-30.72 118.272 21.504 5.632 10.24 22.016 19.968 33.792 20.48 66.048 2.56 104.448 47.104 92.16 112.128-12.8 68.608-56.832 115.712-115.712 146.944-50.176 26.624-103.424 45.568-158.72 5.632-18.432-13.312-37.376-7.68-37.376 20.48 1.024 65.024 69.632 113.664 133.12 94.72 14.848-4.608 29.696-8.192 44.032-13.824 96.768-39.424 222.72-136.192 209.408-260.096z" fill="#FF0000" p-id="9389"></path><path d="M826.88 346.624c-1.024-67.072-7.168-135.168-23.552-199.68-7.168-28.672-41.984-62.464-71.168-71.168-122.368-36.352-248.832-38.4-373.76-11.776-18.944 4.096-33.28 30.72-49.664 47.104 20.992 8.704 48.128 31.232 61.952 24.576 76.288-35.84 155.136-16.384 232.448-15.872 105.472 0 162.816 67.072 151.04 171.008-3.584 34.304-19.968 63.488-58.88 66.56-101.376 8.192-202.752 14.848-304.64 20.992-50.176 3.072-82.944-22.016-89.088-71.68-4.096-31.232 1.024-63.488 0.512-95.232 0-29.696 6.656-71.168-33.792-73.216-37.888-2.048-43.52 36.352-43.52 68.096 0 45.568 0.512 91.648 2.048 137.216 2.56 71.68 59.904 117.248 131.072 105.984 12.288-2.048 25.088-0.512 50.688-0.512-19.968 21.504-29.696 38.912-44.032 46.592-62.976 32.768-123.904 72.192-200.704 63.488-26.624-3.072-58.368 5.12-49.152 39.424 4.096 15.872 36.352 34.816 55.296 34.816 32.768-0.512 65.024-17.408 98.304-24.064 95.232-19.968 164.864-75.264 221.696-150.528 7.68-10.24 22.016-21.504 33.792-22.016 64.512-2.56 129.024-1.024 193.536-2.56 55.808-2.56 110.08-39.936 109.568-87.552z" fill="#FF0000" p-id="9390"></path><path d="M368.64 253.44c2.56 39.936 34.816 28.16 58.88 27.136 57.344-2.56 114.688-5.632 172.032-8.704 3.072 4.096 6.144 8.704 9.216 12.8 16.896-12.288 47.616-24.064 48.128-37.376 2.048-37.888-30.208-35.84-59.392-34.304-57.856 2.048-115.712 4.096-173.056 2.56-30.72-1.024-58.368-1.536-55.808 37.888z" fill="#FF0000" p-id="9391"></path></svg>