<?xml version="1.0" standalone="no"?><!DOCTYPE svg PUBLIC "-//W3C//DTD SVG 1.1//EN" "http://www.w3.org/Graphics/SVG/1.1/DTD/svg11.dtd"><svg t="1776918251450" class="icon" viewBox="0 0 1024 1024" version="1.1" xmlns="http://www.w3.org/2000/svg" p-id="50507" xmlns:xlink="http://www.w3.org/1999/xlink" width="200" height="200"><path d="M223.5191706 321.37939971c-25.14834668 26.07315292-46.93125059 55.4415917-64.6216207 87.03169102l-27.31260586-14.25476866c-3.63544453-16.42327998-18.1921043-28.10985205-34.99806269-28.10985293-1.20968877 0-2.43638526 0.0531501-3.63544453 0.16795372-19.31675362 2.08134492-33.29939619 20.3988832-30.62277335 40.12807938 1.75394268 17.94974151 16.82509219 31.60710703 34.8279838 31.60710704 1.49669737 0 2.99339559-0.08503945 4.46245487-0.28488252 3.7374917-0.42732422 7.35592852-1.59661933 10.63633273-3.4228459l26.67268212 14.25902168c-14.69910146 33.21435674-25.31842646 68.19753779-31.32009844 104.00560313l43.93360283 8.15530077c13.31508164-78.15142705 49.97992148-149.55495908 104.59450284-207.33514101l-32.61695362-31.94726572z m321.13518487-137.27948732c-9.99215771 0-19.98431455 0.68244346-29.97859834 0.68244259l-3.99048486-37.41956631c10.67672636-8.82711474 17.34808623-23.07763213 15.35178075-38.73130312-2.10898301-21.40022461-20.08423652-37.70870185-41.56950146-37.70870186-1.69441435 0-3.42284502 0.11267754-5.10450379 0.31464668-23.30936455 2.7255208-39.30106905 23.76432685-36.62232014 47.5562918 1.99630547 14.96910234 11.32090137 27.91213506 23.99180802 33.34616806l3.99048486 37.37492052c-41.97981709 6.78828867-81.95269922 19.73132227-120.5819543 38.73130312l19.31250147 40.81690019c54.32969883-26.33039824 114.00413818-40.1280794 174.41629716-40.12807851h0.78449063c29.30891133 0 57.98215107 3.39095566 86.60436768 9.53506934l9.32246982-44.20785586c-31.29033516-6.69899707-63.25248252-10.17711826-95.28266162-10.17711914h-0.65693145l0.01275557 0.0148825z m386.38609893 151.73409992c17.72013427-2.40662198 30.96293203-17.54580323 30.96293203-35.45089893 0-1.56898125-0.09992197-3.1379625-0.31464669-4.67718047-2.680875-19.68667646-19.98644063-33.94144511-39.30106816-31.26057099-17.99226123 2.03882519-31.30734287 18.37493965-31.30734285 36.050429L866.41670761 322.2212917c-24.70188867-25.83291622-52.47158291-48.72346084-82.59474814-67.97005664l-23.30723848 38.0892542c65.87595527 42.28596035 118.04777315 103.12544268 149.89724297 174.66078603l40.62556143-18.33241992c-14.56516406-32.87207197-33.24412002-64.03697315-55.28001621-92.43383379l23.30723848-21.12384638c2.36622832 0.76748291 4.87489747 1.13953095 7.3835666 1.13953095 1.53921709 0 3.08056114-0.14456777 4.59214014-0.42732422v0.01063038z m-418.33123858 457.47711035c-22.63755146 1.35638262-45.30486709 2.03882519-67.97218272 2.0388252-51.28953135 0-101.22905918-3.39095566-145.20943388-10.85956172-22.63542539-3.39520781-49.29322588-9.53932148-74.59676982-17.7350168 61.28381513 110.85129404 179.83332246 186.32184697 315.09099227 186.32184697 167.20493643 0 307.77970957-114.24862793 348.36700255-269.23549394-39.98988983 26.51961094-87.88633945 48.95519326-143.85517735 67.28973925-67.97005664 23.12015185-148.57487754 37.42169238-231.81167549 42.16903067l-0.01275556 0.01063037z m183.2986872-184.20861182c-43.97824864 0-79.29095801-36.73712373-79.290958-80.90245986 0-44.88817325 35.98239638-80.89820771 79.290958-80.89820772 43.97612256 0 79.29095801 36.69247793 79.2909589 80.89820772 0 44.89242451-35.31483545 80.90245987-79.2909589 80.90245986z m-277.11441562 54.38497413c-59.97420441 0-107.91530068-49.63976279-107.91530068-110.13696124 0-61.18601924 48.6554291-110.14121338 107.91530068-110.1412125 59.97420441 0 107.91530068 49.63763673 107.91530069 110.1412125 0 60.49719844-48.65330302 110.13696123-107.91530069 110.13696124z m125.90330977-388.86500391c-195.82927822 0-355.71867979 159.09002842-355.71867978 354.8512749 0.01275557 0 0.01275557 0.1424417 0.01275644 0.17007891 0 25.29078838 2.71063828 50.57945068 8.01498604 75.29834794 39.30319424 28.55631006 158.51813731 53.03284453 313.050041 43.52328633 168.55919209-10.17711826 309.77388896-57.10836885 390.37870988-129.18584003 0-11.54413125-1.32661846-23.12227792-2.63835528-34.69829854-21.99762862-176.7102416-173.87842148-309.95885039-353.08457666-309.95884951h-0.01488164z" fill="#0F73EE" p-id="50508"></path></svg>