<?xml version="1.0" standalone="no"?><!DOCTYPE svg PUBLIC "-//W3C//DTD SVG 1.1//EN" "http://www.w3.org/Graphics/SVG/1.1/DTD/svg11.dtd"><svg t="1776917188469" class="icon" viewBox="0 0 1024 1024" version="1.1" xmlns="http://www.w3.org/2000/svg" p-id="19458" xmlns:xlink="http://www.w3.org/1999/xlink" width="200" height="200"><path d="M0 0m78.301867 0l867.396266 0q78.301867 0 78.301867 78.301867l0 867.396266q0 78.301867-78.301867 78.301867l-867.396266 0q-78.301867 0-78.301867-78.301867l0-867.396266q0-78.301867 78.301867-78.301867Z" fill="#07A081" p-id="19459"></path><path d="M573.44 289.314133L334.506667 286.72v443.733333h238.933333V611.805867c81.5104-13.653333 143.36-80.622933 143.36-161.245867s-61.8496-147.592533-143.36-161.245867zM573.44 552.96h-54.613333v116.053333H395.946667V348.16l177.493333 3.822933A102.4 102.4 0 0 1 648.533333 450.56c0 47.104-31.812267 90.453333-75.093333 102.4z" fill="#FFFFFF" p-id="19460"></path></svg>