<?xml version="1.0" standalone="no"?><!DOCTYPE svg PUBLIC "-//W3C//DTD SVG 1.1//EN" "http://www.w3.org/Graphics/SVG/1.1/DTD/svg11.dtd"><svg t="1776853520735" class="icon" viewBox="0 0 1024 1024" version="1.1" xmlns="http://www.w3.org/2000/svg" p-id="6192" xmlns:xlink="http://www.w3.org/1999/xlink" width="200" height="200"><path d="M432 1016C166.933333 974.4-25.6 723.2 4.8 458.666667 28.266667 257.6 159.466667 94.4 350.4 28.8c265.066667-91.2 556.8 55.466667 645.866667 324.8 98.666667 298.133333-97.6 615.466667-409.066667 662.4-61.333333 9.6-94.4 9.6-155.2 0z m142.933333-139.2c23.466667-4.8 62.4-18.666667 91.2-32.533333 41.066667-20.266667 58.666667-33.066667 93.866667-68.266667 41.066667-40 72-86.4 72-106.666667 0-13.333333-19.2-46.933333-35.733333-62.4-8-8-24.533333-18.133333-35.733334-22.933333-31.466667-13.333333-58.133333-1.066667-98.666666 44.8-18.133333 20.266667-44.266667 42.666667-60.266667 51.733333-27.2 14.933333-30.933333 15.466667-94.933333 15.466667-59.2 0-69.333333-1.6-89.6-12.266667-35.2-18.666667-63.466667-46.933333-79.466667-80-13.866667-27.733333-14.933333-35.2-14.933333-91.733333 0-54.4 1.6-64.533333 12.8-88 29.333333-59.2 82.133333-93.333333 152-97.6 78.933333-4.8 126.4 14.4 177.6 73.066667 43.2 49.066667 68.8 58.133333 108.266666 37.866666 23.466667-12.266667 43.733333-36.266667 53.866667-65.6 6.933333-19.2 6.4-22.4-8.533333-50.666666-9.066667-17.6-33.066667-47.466667-57.066667-71.466667-73.066667-73.066667-180.266667-115.733333-273.6-108.8-157.866667 11.2-300.8 132.266667-340.8 289.066667-11.2 42.666667-10.666667 122.133333 0 164.266666 27.733333 107.733333 103.466667 200.533333 204.8 251.2 77.333333 38.4 143.466667 48 222.933333 31.466667z" fill="#FFFFFF" p-id="6193"></path><path d="M386.666667 883.2c-121.066667-38.4-222.933333-147.733333-256-275.2-12.266667-46.4-12.266667-145.066667 0-192 20.266667-79.466667 75.733333-164.266667 137.066666-210.666667 35.733333-27.2 107.733333-63.466667 136.533334-69.333333l17.066666-3.733333v102.933333c0 91.2 1.066667 102.933333 9.066667 109.333333 5.333333 3.733333 8.533333 7.466667 6.933333 9.066667-1.6 1.066667-14.4 9.6-28.266666 19.2-30.4 20.266667-59.2 62.4-68.266667 98.133333-17.066667 69.333333 16 150.4 75.733333 188.266667 10.133333 6.4 8 231.466667-2.133333 230.933333-3.733333 0-16-3.2-27.733333-6.933333z" fill="#0077FE" p-id="6194"></path><path d="M433.6 896.533333c-12.8-2.133333-24-5.333333-26.133333-7.466666-3.2-3.2-3.2-228.266667 0.533333-232 0.533333-1.066667 12.266667 3.733333 25.066667 10.666666 19.2 10.133333 30.933333 12.266667 73.6 12.266667 46.4 0 53.333333-1.6 79.466666-16 16-8.533333 41.6-30.4 58.133334-49.6 27.2-31.466667 51.2-49.066667 65.066666-49.066667 3.733333 0 5.333333 43.733333 4.266667 140.266667l-1.6 139.733333-40 19.733334c-22.4 10.666667-58.666667 22.933333-81.6 27.733333-41.066667 8.533333-115.733333 10.133333-156.8 3.733333zM692.266667 454.933333c-8-3.733333-27.2-21.866667-42.666667-39.466666-34.133333-38.4-61.333333-57.066667-97.066667-66.666667-37.866667-10.133333-67.733333-9.066667-102.4 2.666667-16 5.866667-33.066667 9.066667-37.333333 7.466666-5.866667-2.133333-7.466667-21.866667-7.466667-113.6 0-129.6-9.066667-116.266667 82.666667-121.066666 73.066667-3.2 121.066667 5.866667 182.933333 35.733333l43.733334 20.8v141.866667c0 77.866667-1.6 141.333333-3.733334 140.8-2.666667-0.533333-10.666667-4.266667-18.666666-8.533334z" fill="#00AEFC" p-id="6195"></path><path d="M576 890.666667c0-2.666667 3.733333-5.333333 8-5.333334s8 2.666667 8 5.333334c0 3.2-3.733333 5.333333-8 5.333333s-8-2.133333-8-5.333333zM618.666667 880c0-2.666667 3.733333-5.333333 8-5.333333s8 2.666667 8 5.333333c0 3.2-3.733333 5.333333-8 5.333333s-8-2.133333-8-5.333333zM698.666667 709.866667v-143.466667l12.266666-3.2c65.6-17.6 137.066667 37.866667 137.066667 106.133333 0 15.466667-4.8 34.133333-13.866667 51.733334-15.466667 30.4-84.266667 101.866667-115.2 120l-20.266666 11.733333v-142.933333zM702.4 460.266667c-5.866667-5.333333-4.266667-284.266667 1.066667-284.266667 9.066667 0 69.333333 48.533333 91.733333 73.6 49.6 56 63.466667 101.866667 45.333333 145.6-19.2 45.866667-53.333333 68.8-103.466666 68.8-17.066667 0-33.066667-1.6-34.666667-3.733333z" fill="#00D9FB" p-id="6196"></path></svg>